<svg width="308" height="73" viewBox="0 0 308 73" fill="none" xmlns="http://www.w3.org/2000/svg">
<path d="M89.44 27.44C88.8267 27.44 88.2933 27.2267 87.84 26.8C87.3867 26.3467 87.16 25.8133 87.16 25.2V25.08C87.16 24.4667 87.3867 23.9333 87.84 23.48C88.2933 23.0267 88.8267 22.8 89.44 22.8H106.48C107.093 22.8 107.627 23.0267 108.08 23.48C108.533 23.9333 108.76 24.4667 108.76 25.08V25.2C108.76 25.8133 108.533 26.3467 108.08 26.8C107.627 27.2267 107.093 27.44 106.48 27.44H101.12C100.907 27.44 100.8 27.56 100.8 27.8V49.72C100.8 50.3333 100.573 50.8667 100.12 51.32C99.6667 51.7733 99.1333 52 98.52 52H97.4C96.7867 52 96.2533 51.7733 95.8 51.32C95.3467 50.8667 95.12 50.3333 95.12 49.72V27.8C95.12 27.56 95.0133 27.44 94.8 27.44H89.44ZM122.344 36.36C121.57 35.24 120.397 34.68 118.824 34.68C117.25 34.68 116.064 35.24 115.264 36.36C114.49 37.4533 114.104 39.2 114.104 41.6C114.104 44 114.49 45.76 115.264 46.88C116.064 47.9733 117.25 48.52 118.824 48.52C120.397 48.52 121.57 47.9733 122.344 46.88C123.144 45.76 123.544 44 123.544 41.6C123.544 39.2 123.144 37.4533 122.344 36.36ZM126.264 49.6C124.504 51.4667 122.024 52.4 118.824 52.4C115.624 52.4 113.13 51.4667 111.344 49.6C109.584 47.7067 108.704 45.04 108.704 41.6C108.704 38.16 109.584 35.5067 111.344 33.64C113.13 31.7467 115.624 30.8 118.824 30.8C122.024 30.8 124.504 31.7467 126.264 33.64C128.05 35.5067 128.944 38.16 128.944 41.6C128.944 45.04 128.05 47.7067 126.264 49.6ZM139.033 27.44V47.36C139.033 47.5467 139.139 47.6667 139.353 47.72C140.206 47.8533 141.006 47.92 141.753 47.92C144.873 47.92 147.166 47.08 148.633 45.4C150.099 43.6933 150.833 40.8933 150.833 37C150.833 33.5067 150.086 30.9467 148.593 29.32C147.099 27.6933 144.819 26.88 141.753 26.88C141.006 26.88 140.206 26.9467 139.353 27.08C139.139 27.1333 139.033 27.2533 139.033 27.44ZM135.753 52.12C135.086 52.04 134.539 51.76 134.113 51.28C133.686 50.7733 133.473 50.1867 133.473 49.52V25.28C133.473 24.6133 133.686 24.04 134.113 23.56C134.539 23.0533 135.086 22.76 135.753 22.68C137.459 22.4933 139.366 22.4 141.473 22.4C146.219 22.4 149.846 23.64 152.352 26.12C154.886 28.6 156.153 32.2267 156.153 37C156.153 42.12 154.886 45.9733 152.352 48.56C149.846 51.12 146.219 52.4 141.473 52.4C139.366 52.4 137.459 52.3067 135.753 52.12ZM180.171 37.4C180.171 30.4667 177.637 27 172.571 27C167.504 27 164.971 30.4667 164.971 37.4C164.971 44.3333 167.504 47.8 172.571 47.8C177.637 47.8 180.171 44.3333 180.171 37.4ZM182.291 48.44C179.917 51.08 176.677 52.4 172.571 52.4C168.464 52.4 165.211 51.08 162.811 48.44C160.437 45.8 159.251 42.12 159.251 37.4C159.251 32.68 160.437 29 162.811 26.36C165.211 23.72 168.464 22.4 172.571 22.4C176.677 22.4 179.917 23.72 182.291 26.36C184.691 29 185.891 32.68 185.891 37.4C185.891 42.12 184.691 45.8 182.291 48.44ZM203.753 42.52C203.166 42.52 202.659 42.32 202.233 41.92C201.806 41.4933 201.593 40.9867 201.593 40.4C201.593 39.8133 201.806 39.32 202.233 38.92C202.659 38.4933 203.166 38.28 203.753 38.28H212.793C213.379 38.28 213.886 38.4933 214.313 38.92C214.739 39.32 214.953 39.8133 214.953 40.4C214.953 40.9867 214.739 41.4933 214.313 41.92C213.886 42.32 213.379 42.52 212.793 42.52H203.753ZM234.697 52C234.084 52 233.55 51.7733 233.097 51.32C232.67 50.8667 232.457 50.3333 232.457 49.72V25.08C232.457 24.4667 232.67 23.9333 233.097 23.48C233.55 23.0267 234.084 22.8 234.697 22.8H235.977C236.59 22.8 237.124 23.0267 237.577 23.48C238.03 23.9333 238.257 24.4667 238.257 25.08V47C238.257 47.24 238.364 47.36 238.577 47.36H248.857C249.47 47.36 249.99 47.5867 250.417 48.04C250.87 48.4667 251.097 48.9867 251.097 49.6V49.72C251.097 50.3333 250.87 50.8667 250.417 51.32C249.99 51.7733 249.47 52 248.857 52H234.697ZM259.482 52C258.869 52 258.336 51.7733 257.882 51.32C257.429 50.8667 257.202 50.3333 257.202 49.72V33.48C257.202 32.8667 257.429 32.3333 257.882 31.88C258.336 31.4267 258.869 31.2 259.482 31.2H260.522C261.136 31.2 261.669 31.4267 262.122 31.88C262.576 32.3333 262.802 32.8667 262.802 33.48V49.72C262.802 50.3333 262.576 50.8667 262.122 51.32C261.669 51.7733 261.136 52 260.522 52H259.482ZM259.482 26.8C258.869 26.8 258.336 26.5733 257.882 26.12C257.429 25.6667 257.202 25.1333 257.202 24.52V24.28C257.202 23.6667 257.429 23.1333 257.882 22.68C258.336 22.2267 258.869 22 259.482 22H260.522C261.136 22 261.669 22.2267 262.122 22.68C262.576 23.1333 262.802 23.6667 262.802 24.28V24.52C262.802 25.1333 262.576 25.6667 262.122 26.12C261.669 26.5733 261.136 26.8 260.522 26.8H259.482ZM276.678 43.6C273.878 42.9867 271.878 42.1467 270.678 41.08C269.504 40.0133 268.918 38.6267 268.918 36.92C268.918 35 269.624 33.5067 271.038 32.44C272.478 31.3467 274.598 30.8 277.398 30.8C279.158 30.8 280.904 30.96 282.638 31.28C283.224 31.3867 283.691 31.68 284.038 32.16C284.411 32.6133 284.598 33.1467 284.598 33.76C284.598 34.2667 284.398 34.68 283.998 35C283.598 35.2933 283.144 35.3733 282.638 35.24C281.144 34.8667 279.571 34.68 277.918 34.68C275.518 34.68 274.318 35.3467 274.318 36.68C274.318 37.32 274.544 37.8533 274.998 38.28C275.451 38.7067 276.224 39.04 277.318 39.28C280.384 39.8933 282.478 40.72 283.598 41.76C284.744 42.8 285.318 44.32 285.318 46.32C285.318 48.24 284.598 49.7333 283.158 50.8C281.718 51.8667 279.624 52.4 276.878 52.4C275.091 52.4 273.264 52.1867 271.398 51.76C270.811 51.6267 270.331 51.32 269.958 50.84C269.584 50.3333 269.398 49.76 269.398 49.12C269.398 48.6133 269.598 48.2267 269.998 47.96C270.424 47.6933 270.878 47.6267 271.358 47.76C273.091 48.24 274.731 48.48 276.278 48.48C278.704 48.48 279.918 47.76 279.918 46.32C279.918 45.6267 279.678 45.08 279.198 44.68C278.744 44.28 277.904 43.92 276.678 43.6ZM290.36 35.88C289.826 35.88 289.373 35.6933 289 35.32C288.626 34.92 288.44 34.4533 288.44 33.92C288.44 33.3867 288.626 32.9333 289 32.56C289.373 32.1867 289.826 32 290.36 32H292.28C292.52 32 292.64 31.88 292.64 31.64V26.68C292.64 26.0667 292.853 25.5333 293.28 25.08C293.733 24.6267 294.266 24.4 294.88 24.4H295.68C296.293 24.4 296.826 24.6267 297.28 25.08C297.733 25.5333 297.96 26.0667 297.96 26.68V31.64C297.96 31.88 298.08 32 298.32 32H302.88C303.413 32 303.866 32.1867 304.24 32.56C304.64 32.9333 304.84 33.3867 304.84 33.92C304.84 34.4533 304.64 34.92 304.24 35.32C303.866 35.6933 303.413 35.88 302.88 35.88H298.32C298.08 35.88 297.96 35.9867 297.96 36.2V44.28C297.96 46.0133 298.146 47.1333 298.52 47.64C298.893 48.1467 299.666 48.4 300.84 48.4C301.48 48.4 301.96 48.3733 302.28 48.32C302.813 48.2667 303.28 48.3867 303.68 48.68C304.08 48.9733 304.28 49.3733 304.28 49.88C304.28 50.4667 304.08 51 303.68 51.48C303.306 51.9333 302.84 52.1867 302.28 52.24C301.106 52.3467 300.226 52.4 299.64 52.4C297.053 52.4 295.24 51.8533 294.2 50.76C293.16 49.64 292.64 47.6533 292.64 44.8V36.2C292.64 35.9867 292.52 35.88 292.28 35.88H290.36Z" fill="black"/>
<path d="M21.9 0H51.1C56.9082 0 62.4786 2.30731 66.5856 6.41436C70.6927 10.5214 73 16.0918 73 21.9V51.1C73 56.9082 70.6927 62.4786 66.5856 66.5856C62.4786 70.6927 56.9082 73 51.1 73H21.9C16.0918 73 10.5214 70.6927 6.41436 66.5856C2.30731 62.4786 0 56.9082 0 51.1L0 21.9C0 16.0918 2.30731 10.5214 6.41436 6.41436C10.5214 2.30731 16.0918 0 21.9 0ZM43.8 32.85C42.832 32.85 41.9036 33.2346 41.2191 33.9191C40.5346 34.6036 40.15 35.532 40.15 36.5C40.15 37.468 40.5346 38.3964 41.2191 39.0809C41.9036 39.7654 42.832 40.15 43.8 40.15H54.75C55.718 40.15 56.6464 39.7654 57.3309 39.0809C58.0154 38.3964 58.4 37.468 58.4 36.5C58.4 35.532 58.0154 34.6036 57.3309 33.9191C56.6464 33.2346 55.718 32.85 54.75 32.85H43.8ZM36.5 47.45C35.532 47.45 34.6036 47.8346 33.9191 48.5191C33.2346 49.2036 32.85 50.132 32.85 51.1C32.85 52.068 33.2346 52.9964 33.9191 53.6809C34.6036 54.3654 35.532 54.75 36.5 54.75H54.75C55.718 54.75 56.6464 54.3654 57.3309 53.6809C58.0154 52.9964 58.4 52.068 58.4 51.1C58.4 50.132 58.0154 49.2036 57.3309 48.5191C56.6464 47.8346 55.718 47.45 54.75 47.45H36.5ZM36.5 18.25C35.532 18.25 34.6036 18.6346 33.9191 19.3191C33.2346 20.0036 32.85 20.932 32.85 21.9C32.85 22.868 33.2346 23.7964 33.9191 24.4809C34.6036 25.1654 35.532 25.55 36.5 25.55H54.75C55.718 25.55 56.6464 25.1654 57.3309 24.4809C58.0154 23.7964 58.4 22.868 58.4 21.9C58.4 20.932 58.0154 20.0036 57.3309 19.3191C56.6464 18.6346 55.718 18.25 54.75 18.25H36.5ZM21.2722 37.387L18.6917 34.8064C18.3549 34.4578 17.9522 34.1797 17.5069 33.9884C17.0616 33.7971 16.5826 33.6964 16.098 33.6922C15.6133 33.688 15.1327 33.7804 14.6841 33.9639C14.2355 34.1474 13.828 34.4185 13.4853 34.7612C13.1426 35.1039 12.8716 35.5114 12.6881 35.96C12.5045 36.4085 12.4122 36.8892 12.4164 37.3738C12.4206 37.8585 12.5213 38.3374 12.7126 38.7827C12.9039 39.228 13.1819 39.6308 13.5306 39.9675L18.6917 45.1286C19.0306 45.468 19.4332 45.7372 19.8763 45.9209C20.3194 46.1046 20.7944 46.1991 21.274 46.1991C21.7537 46.1991 22.2287 46.1046 22.6718 45.9209C23.1149 45.7372 23.5174 45.468 23.8564 45.1286L34.1786 34.8064C34.864 34.122 35.2494 33.1934 35.2501 32.2248C35.2508 31.2562 34.8667 30.327 34.1823 29.6417C33.4978 28.9563 32.5692 28.5709 31.6006 28.5702C30.6321 28.5695 29.7029 28.9536 29.0175 29.638L21.2722 37.3833V37.387Z" fill="black"/>
</svg>
